<svg width="28" height="28" viewBox="0 0 28 28" fill="none" xmlns="http://www.w3.org/2000/svg">
<g clip-path="url(#clip0_130_468)">
<path d="M28 4.66666H24.5V10.5H28V4.66666Z" fill="#FF4267"/>
<path d="M28 12.8333H24.5V18.6666H28V12.8333Z" fill="#FF4267"/>
<path d="M19.8334 0H1.16669V28H19.8334C21.763 28 23.3334 26.4297 23.3334 24.5V3.5C23.3334 1.57033 21.763 0 19.8334 0ZM12.25 7C13.8612 7 15.1667 8.3055 15.1667 9.91667C15.1667 11.5278 13.8612 12.8333 12.25 12.8333C10.6389 12.8333 9.33335 11.5278 9.33335 9.91667C9.33335 8.3055 10.6389 7 12.25 7ZM17.5 19.8333H7.00002V17.9422C7.00002 16.9027 7.68252 15.9938 8.68002 15.6998C9.60752 15.4257 10.8535 15.1667 12.25 15.1667C13.6465 15.1667 14.8925 15.4257 15.82 15.6998C16.8175 15.9938 17.5 16.9027 17.5 17.9422V19.8333Z" fill="#FF4267"/>
</g>
<defs>
<clipPath id="clip0_130_468">
<rect width="28" height="28" fill="white"/>
</clipPath>
</defs>
</svg>
