<svg width="375" height="264" viewBox="0 0 375 264" fill="none" xmlns="http://www.w3.org/2000/svg">
<g filter="url(#filter0_d_10_1121)">
<path d="M336.783 26H38.2174C30.3653 26 24 32.2557 24 39.9726V216.027C24 223.744 30.3653 230 38.2174 230H336.783C344.635 230 351 223.744 351 216.027V39.9726C351 32.2557 344.635 26 336.783 26Z" fill="#1573FF"/>
<mask id="mask0_10_1121" style="mask-type:alpha" maskUnits="userSpaceOnUse" x="24" y="26" width="327" height="204">
<path d="M336.783 26H38.2174C30.3653 26 24 32.2557 24 39.9726V216.027C24 223.744 30.3653 230 38.2174 230H336.783C344.635 230 351 223.744 351 216.027V39.9726C351 32.2557 344.635 26 336.783 26Z" fill="#DAEBFF"/>
</mask>
<g mask="url(#mask0_10_1121)">
<path d="M69.8988 348.172C167.489 348.172 246.601 270.422 246.601 174.513C246.601 78.6032 167.489 0.853096 69.8988 0.853096C-27.6909 0.853096 -106.803 78.6032 -106.803 174.513C-106.803 270.422 -27.6909 348.172 69.8988 348.172Z" fill="#1E1671"/>
<path d="M342.878 153.749C395.599 153.749 438.338 111.746 438.338 59.9326C438.338 8.11932 395.599 -33.8836 342.878 -33.8836C290.157 -33.8836 247.418 8.11932 247.418 59.9326C247.418 111.746 290.157 153.749 342.878 153.749Z" fill="#4EB4FF"/>
</g>
</g>
<defs>
<filter id="filter0_d_10_1121" x="-6" y="0" width="387" height="264" filterUnits="userSpaceOnUse" color-interpolation-filters="sRGB">
<feFlood flood-opacity="0" result="BackgroundImageFix"/>
<feColorMatrix in="SourceAlpha" type="matrix" values="0 0 0 0 0 0 0 0 0 0 0 0 0 0 0 0 0 0 127 0" result="hardAlpha"/>
<feOffset dy="4"/>
<feGaussianBlur stdDeviation="15"/>
<feColorMatrix type="matrix" values="0 0 0 0 0.211765 0 0 0 0 0.160784 0 0 0 0 0.717647 0 0 0 0.07 0"/>
<feBlend mode="normal" in2="BackgroundImageFix" result="effect1_dropShadow_10_1121"/>
<feBlend mode="normal" in="SourceGraphic" in2="effect1_dropShadow_10_1121" result="shape"/>
</filter>
</defs>
</svg>
