<svg width="28" height="28" viewBox="0 0 28 28" fill="none" xmlns="http://www.w3.org/2000/svg">
<path d="M24.5 0H3.49998C2.85598 0 2.33331 0.5215 2.33331 1.16667V28L6.99998 24.5L10.5 28L14 24.5L17.5 28L21 24.5L25.6666 28V1.16667C25.6666 0.5215 25.144 0 24.5 0ZM15.1666 18.6667H6.99998V16.3333H15.1666V18.6667ZM15.1666 14H6.99998V11.6667H15.1666V14ZM15.1666 9.33333H6.99998V7H15.1666V9.33333ZM21 18.6667H17.5V16.3333H21V18.6667ZM21 14H17.5V11.6667H21V14ZM21 9.33333H17.5V7H21V9.33333Z" fill="#52D5BA"/>
</svg>
