<svg width="50" height="73" viewBox="0 0 50 73" fill="none" xmlns="http://www.w3.org/2000/svg">
<path d="M35.5378 30.3239C34.92 30.3239 34.3931 29.813 34.3931 29.1927V19.2307C34.3931 14.0125 30.178 9.77954 24.9818 9.77954C19.7856 9.77954 15.5705 14.0307 15.5705 19.2307V29.1927C15.5705 29.813 15.0618 30.3239 14.4259 30.3239H8.10316C7.48543 30.3239 6.97672 29.813 6.97672 29.1927V19.2307C6.97672 9.25042 15.0617 1.1312 25 1.1312C34.9382 1.1312 43.0232 9.25042 43.0232 19.2307V29.1927C43.0232 29.813 42.5145 30.3239 41.8786 30.3239H35.5378Z" fill="#5655B9"/>
<path d="M25 2.26244C34.3023 2.26244 41.8786 9.87078 41.8786 19.2124V29.1745H35.5559V19.2124C35.5559 13.3739 30.8321 8.61185 25 8.61185C19.186 8.61185 14.444 13.3557 14.444 19.2124V29.1745H8.12133V19.2124C8.12133 9.87078 15.6795 2.26244 25 2.26244ZM25 0C14.444 0 5.85025 8.63009 5.85025 19.2307V29.1927C5.85025 30.4516 6.86769 31.4734 8.12133 31.4734H14.444C15.6976 31.4734 16.7151 30.4516 16.7151 29.1927V19.2307C16.7151 14.6511 20.4215 10.9108 25 10.9108C29.5603 10.9108 33.2848 14.6511 33.2848 19.2307V29.1927C33.2848 30.4516 34.3023 31.4734 35.5559 31.4734H41.8786C43.1322 31.4734 44.1497 30.4516 44.1497 29.1927V19.2307C44.1497 8.61185 35.5559 0 25 0Z" fill="white"/>
<path d="M3.8881 71.887C2.36194 71.887 1.12646 70.6463 1.12646 69.1137V30.8165C1.12646 29.2839 2.36194 28.0432 3.8881 28.0432H46.1119C47.6381 28.0432 48.8736 29.2839 48.8736 30.8165V69.0955C48.8736 70.6281 47.6381 71.8688 46.1119 71.8688H3.8881V71.887Z" fill="#5655B9"/>
<path d="M46.1119 29.1927C47.0022 29.1927 47.7289 29.9225 47.7289 30.8348V69.1137C47.7289 70.0078 47.0022 70.7558 46.1119 70.7558H3.88808C2.97965 70.7558 2.27108 70.026 2.27108 69.1137V30.8166C2.27108 29.9225 2.99782 29.1745 3.88808 29.1745H46.1119V29.1927ZM46.1119 26.912H3.88808C1.74419 26.912 0 28.6636 0 30.8166V69.0955C0 71.2484 1.74419 73 3.88808 73H46.1119C48.2558 73 50 71.2484 50 69.0955V30.8166C50 28.6636 48.2558 26.912 46.1119 26.912Z" fill="white"/>
<path d="M46.112 29.1927H37.8634V59.3707C37.8634 60.2647 37.1367 60.9945 36.2283 60.9945H2.25293V69.0955C2.25293 69.9895 2.97967 70.7376 3.86994 70.7376H46.0938C46.9841 70.7376 47.7108 70.0078 47.7108 69.0955V30.8165C47.729 29.9225 47.0022 29.1927 46.112 29.1927Z" fill="#5655B9"/>
<path d="M46.112 29.1927H43.0233V63.932C43.0233 64.8443 42.2966 65.5559 41.3881 65.5559H2.25293V69.1137C2.25293 70.0078 2.97967 70.7558 3.86994 70.7558H46.0938C46.9841 70.7558 47.7108 70.026 47.7108 69.1137V30.8165C47.729 29.9225 47.0022 29.1927 46.112 29.1927Z" fill="#5655B9"/>
<path d="M23.1715 54.262C23.1715 54.0031 23.0117 53.7711 22.7699 53.6788C20.4258 52.7836 18.7747 50.5119 18.7747 47.8578C18.7747 44.4255 21.566 41.6401 24.9818 41.6401C28.4147 41.6401 31.1889 44.4244 31.1889 47.8578C31.1889 50.5119 29.5378 52.7836 27.1937 53.6788C26.9518 53.7711 26.7921 54.0031 26.7921 54.262V57.4732C26.7921 58.481 25.979 59.2938 24.9818 59.2938C23.9846 59.2938 23.1715 58.481 23.1715 57.4732V54.262Z" fill="#5655B9" stroke="white" stroke-width="1.2486" stroke-miterlimit="10" stroke-linecap="round" stroke-linejoin="round"/>
</svg>
